%
M48
M72
T01C0.0236
T02C0.0320
T03C0.0360
T04C0.0400
T05C0.1260
%
T01
X14400Y32900
X14900Y32400
X14400Y31900
X14900Y31400
X14400Y30900
X14900Y30400
X14150Y29900
X14900Y29400
X14150Y28900
X14400Y27650
X11900Y26900
X11650Y28400
X7400Y28400
X12150Y21900
X10400Y20900
X14900Y14900
X18150Y16400
X18650Y19900
X17400Y19900
X18650Y24400
X18150Y26400
X22150Y28400
X22650Y27900
X22650Y28900
X22150Y29400
X22650Y29900
X22150Y30400
X22650Y30900
X22150Y31400
X22650Y31900
X22150Y32400
X22650Y32900
X21650Y35400
X22900Y35900
X26400Y31400
X26900Y30900
X29650Y32900
X30400Y33400
X33150Y28400
X33650Y26400
X37150Y26400
X35150Y20650
X34650Y19650
X34400Y17900
X33400Y17400
X33650Y16400
X35900Y15900
X36400Y16900
X35900Y17900
X37400Y19150
X37900Y18650
X38400Y18150
X36400Y13900
X36650Y10900
X33150Y10900
X27900Y14650
X24150Y16900
X21900Y15400
X22400Y14650
X23150Y11400
X22650Y10400
X23150Y7400
X22650Y6900
X23150Y6400
X22650Y5900
X23150Y5400
X22650Y4900
X23150Y4400
X22150Y3900
X24150Y2650
X14150Y4400
X13650Y4900
X14150Y5400
X13650Y5900
X14150Y6400
X13650Y6900
X14150Y7400
X13650Y7900
X14150Y8400
X13650Y3900
X12650Y2650
X6150Y4150
X25400Y23650
X23650Y23900
X23650Y25650
X27400Y24150
X29150Y26150
X28650Y27150
X29650Y27150
X31650Y20900
X30900Y20150
X14900Y33400
T02
X13150Y11900
X13150Y12900
X13150Y13900
X13150Y14900
X13150Y15900
X13150Y16900
X13150Y17900
X13150Y20400
X13150Y21400
X13150Y22400
X13150Y23400
X13150Y24400
X13150Y25400
X13150Y26400
X12650Y27650
X10400Y27650
X6400Y27650
X6150Y22400
X6150Y21400
X6150Y20400
X6150Y19400
X9150Y19400
X9150Y20400
X9150Y21400
X9150Y22400
X16150Y22400
X16150Y21400
X16150Y20400
X16150Y17900
X16150Y16900
X16150Y15900
X16150Y14900
X16150Y13900
X16150Y12900
X16150Y11900
X17400Y15900
X17400Y17900
X22650Y18650
X23650Y18650
X24650Y18650
X25650Y18650
X26650Y18650
X27650Y18650
X28650Y18650
X29650Y18650
X29650Y16900
X27650Y16900
X27650Y21650
X28650Y21650
X29650Y21650
X26650Y21650
X25650Y21650
X24650Y21650
X23650Y21650
X22650Y21650
X17400Y24400
X16150Y24400
X16150Y23400
X16150Y25400
X16150Y26400
X17400Y26400
X16650Y27650
X23900Y27150
X27900Y27150
X35150Y26900
X35150Y25900
X35150Y24900
X35150Y23900
X35150Y22900
X38150Y22900
X38150Y23900
X38150Y24900
X38150Y25900
X38150Y26900
X38150Y27900
X38150Y28900
X38150Y29900
X35150Y29900
X35150Y28900
X35150Y27900
X35150Y31900
X35150Y32900
X38150Y14900
X38150Y13900
X38150Y12900
X38150Y11900
X38150Y10900
X38150Y9900
X38150Y8900
X38150Y7900
X38150Y5900
X38150Y4900
X35150Y7900
X34150Y7900
X34150Y6900
X34150Y5900
X34150Y4900
X35150Y8900
X35150Y9900
X35150Y10900
X35150Y11900
X35150Y12900
X35150Y13900
X35150Y14900
X28150Y11400
X24150Y11400
X10150Y12900
X10150Y13900
X6150Y13900
X6150Y12900
X1150Y13400
X1150Y14900
X1150Y16400
X1150Y18400
X1150Y19400
X1150Y20400
X1150Y21400
X1150Y22400
T03
X6900Y35150
X9900Y35150
X13150Y35150
X16150Y35150
X24400Y34650
X27400Y34650
X38150Y21650
X35150Y21650
X27650Y10150
X24650Y10150
X16150Y10150
X13150Y10150
X10150Y11650
X7150Y11650
T04
X2650Y1900
X3650Y1900
X3650Y2900
X3650Y3900
X2650Y3900
X2650Y2900
X2650Y4900
X2650Y5900
X3650Y5900
X3650Y4900
X3650Y6900
X3650Y7900
X2650Y7900
X2650Y6900
X2650Y8900
X2650Y9900
X3650Y9900
X3650Y8900
X3650Y10900
X2650Y10900
X2650Y11900
X2650Y12900
X3650Y12900
X3650Y11900
X3650Y13900
X3650Y14900
X2650Y14900
X2650Y13900
X2650Y15900
X2650Y16900
X3650Y16900
X3650Y15900
X3650Y17900
X2650Y17900
X2650Y21900
X2650Y22900
X3650Y22900
X3650Y21900
X3650Y23900
X3650Y24900
X2650Y24900
X2650Y23900
X2650Y25900
X2650Y26900
X3650Y26900
X3650Y25900
X3650Y27900
X3650Y28900
X2650Y28900
X2650Y27900
X2650Y29900
X2650Y30900
X3650Y30900
X3650Y29900
X3650Y31900
X2650Y31900
X2650Y32900
X2650Y33900
X3650Y33900
X3650Y32900
X3650Y34900
X3650Y35900
X2650Y35900
X2650Y34900
X2650Y36900
X2650Y37900
X3650Y37900
X3650Y36900
X19650Y37900
X19650Y36900
X20650Y36900
X20650Y37900
X20650Y35900
X20650Y34900
X19650Y34900
X19650Y35900
X19650Y33900
X19650Y32900
X20650Y32900
X20650Y33900
X20650Y31900
X19650Y31900
X19650Y30900
X19650Y29900
X20650Y29900
X20650Y30900
X20650Y28900
X20650Y27900
X19650Y27900
X19650Y28900
X19650Y26900
X19650Y25900
X20650Y25900
X20650Y26900
X20650Y24900
X20650Y23900
X19650Y23900
X19650Y24900
X19650Y22900
X19650Y21900
X20650Y21900
X20650Y22900
X20650Y17900
X19650Y17900
X19650Y16900
X19650Y15900
X20650Y15900
X20650Y16900
X20650Y14900
X20650Y13900
X19650Y13900
X19650Y14900
X19650Y12900
X19650Y11900
X20650Y11900
X20650Y12900
X20650Y10900
X19650Y10900
X19650Y9900
X19650Y8900
X20650Y8900
X20650Y9900
X20650Y7900
X20650Y6900
X19650Y6900
X19650Y7900
X19650Y5900
X19650Y4900
X20650Y4900
X20650Y5900
X20650Y3900
X20650Y2900
X19650Y2900
X19650Y3900
X19650Y1900
X20650Y1900
X31400Y1900
X32400Y1900
X32400Y2900
X32400Y3900
X31400Y3900
X31400Y2900
X31400Y4900
X31400Y5900
X32400Y5900
X32400Y4900
X32400Y6900
X32400Y7900
X31400Y7900
X31400Y6900
X31400Y8900
X31400Y9900
X32400Y9900
X32400Y8900
X32400Y10900
X31400Y10900
X31400Y11900
X31400Y12900
X32400Y12900
X32400Y11900
X32400Y13900
X32400Y14900
X31400Y14900
X31400Y13900
X31400Y15900
X31400Y16900
X32400Y16900
X32400Y15900
X32400Y17900
X31400Y17900
X31400Y21900
X31400Y22900
X32400Y22900
X32400Y21900
X32400Y23900
X32400Y24900
X31400Y24900
X31400Y23900
X31400Y25900
X31400Y26900
X32400Y26900
X32400Y25900
X32400Y27900
X32400Y28900
X31400Y28900
X31400Y27900
X31400Y29900
X31400Y30900
X32400Y30900
X32400Y29900
X32400Y31900
X31400Y31900
X31400Y32900
X31400Y33900
X32400Y33900
X32400Y32900
X32400Y34900
X32400Y35900
X31400Y35900
X31400Y34900
X31400Y36900
X31400Y37900
X32400Y37900
X32400Y36900
X36900Y34900
X36900Y33900
X36900Y32900
X36900Y31900
T05
X8150Y1900
X37650Y1900
X37650Y37650
X8150Y37650
M30
