G75*
%MOIN*%
%OFA0B0*%
%FSLAX25Y25*%
%IPPOS*%
%LPD*%
%AMOC8*
5,1,8,0,0,1.08239X$1,22.5*
%
%ADD10C,0.00000*%
%ADD11C,0.05200*%
%ADD12OC8,0.05200*%
%ADD13OC8,0.06300*%
%ADD14R,0.08000X0.02600*%
%ADD15OC8,0.06000*%
%ADD16OC8,0.05600*%
%ADD17C,0.06000*%
%ADD18C,0.06300*%
%ADD19C,0.01000*%
%ADD20C,0.03962*%
%ADD21C,0.01600*%
D10*
X0001500Y0001500D02*
X0001500Y0395201D01*
X0395201Y0395201D01*
X0395201Y0001500D01*
X0001500Y0001500D01*
X0075201Y0019000D02*
X0075203Y0019158D01*
X0075209Y0019316D01*
X0075219Y0019474D01*
X0075233Y0019632D01*
X0075251Y0019789D01*
X0075272Y0019946D01*
X0075298Y0020102D01*
X0075328Y0020258D01*
X0075361Y0020413D01*
X0075399Y0020566D01*
X0075440Y0020719D01*
X0075485Y0020871D01*
X0075534Y0021022D01*
X0075587Y0021171D01*
X0075643Y0021319D01*
X0075703Y0021465D01*
X0075767Y0021610D01*
X0075835Y0021753D01*
X0075906Y0021895D01*
X0075980Y0022035D01*
X0076058Y0022172D01*
X0076140Y0022308D01*
X0076224Y0022442D01*
X0076313Y0022573D01*
X0076404Y0022702D01*
X0076499Y0022829D01*
X0076596Y0022954D01*
X0076697Y0023076D01*
X0076801Y0023195D01*
X0076908Y0023312D01*
X0077018Y0023426D01*
X0077131Y0023537D01*
X0077246Y0023646D01*
X0077364Y0023751D01*
X0077485Y0023853D01*
X0077608Y0023953D01*
X0077734Y0024049D01*
X0077862Y0024142D01*
X0077992Y0024232D01*
X0078125Y0024318D01*
X0078260Y0024402D01*
X0078396Y0024481D01*
X0078535Y0024558D01*
X0078676Y0024630D01*
X0078818Y0024700D01*
X0078962Y0024765D01*
X0079108Y0024827D01*
X0079255Y0024885D01*
X0079404Y0024940D01*
X0079554Y0024991D01*
X0079705Y0025038D01*
X0079857Y0025081D01*
X0080010Y0025120D01*
X0080165Y0025156D01*
X0080320Y0025187D01*
X0080476Y0025215D01*
X0080632Y0025239D01*
X0080789Y0025259D01*
X0080947Y0025275D01*
X0081104Y0025287D01*
X0081263Y0025295D01*
X0081421Y0025299D01*
X0081579Y0025299D01*
X0081737Y0025295D01*
X0081896Y0025287D01*
X0082053Y0025275D01*
X0082211Y0025259D01*
X0082368Y0025239D01*
X0082524Y0025215D01*
X0082680Y0025187D01*
X0082835Y0025156D01*
X0082990Y0025120D01*
X0083143Y0025081D01*
X0083295Y0025038D01*
X0083446Y0024991D01*
X0083596Y0024940D01*
X0083745Y0024885D01*
X0083892Y0024827D01*
X0084038Y0024765D01*
X0084182Y0024700D01*
X0084324Y0024630D01*
X0084465Y0024558D01*
X0084604Y0024481D01*
X0084740Y0024402D01*
X0084875Y0024318D01*
X0085008Y0024232D01*
X0085138Y0024142D01*
X0085266Y0024049D01*
X0085392Y0023953D01*
X0085515Y0023853D01*
X0085636Y0023751D01*
X0085754Y0023646D01*
X0085869Y0023537D01*
X0085982Y0023426D01*
X0086092Y0023312D01*
X0086199Y0023195D01*
X0086303Y0023076D01*
X0086404Y0022954D01*
X0086501Y0022829D01*
X0086596Y0022702D01*
X0086687Y0022573D01*
X0086776Y0022442D01*
X0086860Y0022308D01*
X0086942Y0022172D01*
X0087020Y0022035D01*
X0087094Y0021895D01*
X0087165Y0021753D01*
X0087233Y0021610D01*
X0087297Y0021465D01*
X0087357Y0021319D01*
X0087413Y0021171D01*
X0087466Y0021022D01*
X0087515Y0020871D01*
X0087560Y0020719D01*
X0087601Y0020566D01*
X0087639Y0020413D01*
X0087672Y0020258D01*
X0087702Y0020102D01*
X0087728Y0019946D01*
X0087749Y0019789D01*
X0087767Y0019632D01*
X0087781Y0019474D01*
X0087791Y0019316D01*
X0087797Y0019158D01*
X0087799Y0019000D01*
X0087797Y0018842D01*
X0087791Y0018684D01*
X0087781Y0018526D01*
X0087767Y0018368D01*
X0087749Y0018211D01*
X0087728Y0018054D01*
X0087702Y0017898D01*
X0087672Y0017742D01*
X0087639Y0017587D01*
X0087601Y0017434D01*
X0087560Y0017281D01*
X0087515Y0017129D01*
X0087466Y0016978D01*
X0087413Y0016829D01*
X0087357Y0016681D01*
X0087297Y0016535D01*
X0087233Y0016390D01*
X0087165Y0016247D01*
X0087094Y0016105D01*
X0087020Y0015965D01*
X0086942Y0015828D01*
X0086860Y0015692D01*
X0086776Y0015558D01*
X0086687Y0015427D01*
X0086596Y0015298D01*
X0086501Y0015171D01*
X0086404Y0015046D01*
X0086303Y0014924D01*
X0086199Y0014805D01*
X0086092Y0014688D01*
X0085982Y0014574D01*
X0085869Y0014463D01*
X0085754Y0014354D01*
X0085636Y0014249D01*
X0085515Y0014147D01*
X0085392Y0014047D01*
X0085266Y0013951D01*
X0085138Y0013858D01*
X0085008Y0013768D01*
X0084875Y0013682D01*
X0084740Y0013598D01*
X0084604Y0013519D01*
X0084465Y0013442D01*
X0084324Y0013370D01*
X0084182Y0013300D01*
X0084038Y0013235D01*
X0083892Y0013173D01*
X0083745Y0013115D01*
X0083596Y0013060D01*
X0083446Y0013009D01*
X0083295Y0012962D01*
X0083143Y0012919D01*
X0082990Y0012880D01*
X0082835Y0012844D01*
X0082680Y0012813D01*
X0082524Y0012785D01*
X0082368Y0012761D01*
X0082211Y0012741D01*
X0082053Y0012725D01*
X0081896Y0012713D01*
X0081737Y0012705D01*
X0081579Y0012701D01*
X0081421Y0012701D01*
X0081263Y0012705D01*
X0081104Y0012713D01*
X0080947Y0012725D01*
X0080789Y0012741D01*
X0080632Y0012761D01*
X0080476Y0012785D01*
X0080320Y0012813D01*
X0080165Y0012844D01*
X0080010Y0012880D01*
X0079857Y0012919D01*
X0079705Y0012962D01*
X0079554Y0013009D01*
X0079404Y0013060D01*
X0079255Y0013115D01*
X0079108Y0013173D01*
X0078962Y0013235D01*
X0078818Y0013300D01*
X0078676Y0013370D01*
X0078535Y0013442D01*
X0078396Y0013519D01*
X0078260Y0013598D01*
X0078125Y0013682D01*
X0077992Y0013768D01*
X0077862Y0013858D01*
X0077734Y0013951D01*
X0077608Y0014047D01*
X0077485Y0014147D01*
X0077364Y0014249D01*
X0077246Y0014354D01*
X0077131Y0014463D01*
X0077018Y0014574D01*
X0076908Y0014688D01*
X0076801Y0014805D01*
X0076697Y0014924D01*
X0076596Y0015046D01*
X0076499Y0015171D01*
X0076404Y0015298D01*
X0076313Y0015427D01*
X0076224Y0015558D01*
X0076140Y0015692D01*
X0076058Y0015828D01*
X0075980Y0015965D01*
X0075906Y0016105D01*
X0075835Y0016247D01*
X0075767Y0016390D01*
X0075703Y0016535D01*
X0075643Y0016681D01*
X0075587Y0016829D01*
X0075534Y0016978D01*
X0075485Y0017129D01*
X0075440Y0017281D01*
X0075399Y0017434D01*
X0075361Y0017587D01*
X0075328Y0017742D01*
X0075298Y0017898D01*
X0075272Y0018054D01*
X0075251Y0018211D01*
X0075233Y0018368D01*
X0075219Y0018526D01*
X0075209Y0018684D01*
X0075203Y0018842D01*
X0075201Y0019000D01*
X0370201Y0019000D02*
X0370203Y0019158D01*
X0370209Y0019316D01*
X0370219Y0019474D01*
X0370233Y0019632D01*
X0370251Y0019789D01*
X0370272Y0019946D01*
X0370298Y0020102D01*
X0370328Y0020258D01*
X0370361Y0020413D01*
X0370399Y0020566D01*
X0370440Y0020719D01*
X0370485Y0020871D01*
X0370534Y0021022D01*
X0370587Y0021171D01*
X0370643Y0021319D01*
X0370703Y0021465D01*
X0370767Y0021610D01*
X0370835Y0021753D01*
X0370906Y0021895D01*
X0370980Y0022035D01*
X0371058Y0022172D01*
X0371140Y0022308D01*
X0371224Y0022442D01*
X0371313Y0022573D01*
X0371404Y0022702D01*
X0371499Y0022829D01*
X0371596Y0022954D01*
X0371697Y0023076D01*
X0371801Y0023195D01*
X0371908Y0023312D01*
X0372018Y0023426D01*
X0372131Y0023537D01*
X0372246Y0023646D01*
X0372364Y0023751D01*
X0372485Y0023853D01*
X0372608Y0023953D01*
X0372734Y0024049D01*
X0372862Y0024142D01*
X0372992Y0024232D01*
X0373125Y0024318D01*
X0373260Y0024402D01*
X0373396Y0024481D01*
X0373535Y0024558D01*
X0373676Y0024630D01*
X0373818Y0024700D01*
X0373962Y0024765D01*
X0374108Y0024827D01*
X0374255Y0024885D01*
X0374404Y0024940D01*
X0374554Y0024991D01*
X0374705Y0025038D01*
X0374857Y0025081D01*
X0375010Y0025120D01*
X0375165Y0025156D01*
X0375320Y0025187D01*
X0375476Y0025215D01*
X0375632Y0025239D01*
X0375789Y0025259D01*
X0375947Y0025275D01*
X0376104Y0025287D01*
X0376263Y0025295D01*
X0376421Y0025299D01*
X0376579Y0025299D01*
X0376737Y0025295D01*
X0376896Y0025287D01*
X0377053Y0025275D01*
X0377211Y0025259D01*
X0377368Y0025239D01*
X0377524Y0025215D01*
X0377680Y0025187D01*
X0377835Y0025156D01*
X0377990Y0025120D01*
X0378143Y0025081D01*
X0378295Y0025038D01*
X0378446Y0024991D01*
X0378596Y0024940D01*
X0378745Y0024885D01*
X0378892Y0024827D01*
X0379038Y0024765D01*
X0379182Y0024700D01*
X0379324Y0024630D01*
X0379465Y0024558D01*
X0379604Y0024481D01*
X0379740Y0024402D01*
X0379875Y0024318D01*
X0380008Y0024232D01*
X0380138Y0024142D01*
X0380266Y0024049D01*
X0380392Y0023953D01*
X0380515Y0023853D01*
X0380636Y0023751D01*
X0380754Y0023646D01*
X0380869Y0023537D01*
X0380982Y0023426D01*
X0381092Y0023312D01*
X0381199Y0023195D01*
X0381303Y0023076D01*
X0381404Y0022954D01*
X0381501Y0022829D01*
X0381596Y0022702D01*
X0381687Y0022573D01*
X0381776Y0022442D01*
X0381860Y0022308D01*
X0381942Y0022172D01*
X0382020Y0022035D01*
X0382094Y0021895D01*
X0382165Y0021753D01*
X0382233Y0021610D01*
X0382297Y0021465D01*
X0382357Y0021319D01*
X0382413Y0021171D01*
X0382466Y0021022D01*
X0382515Y0020871D01*
X0382560Y0020719D01*
X0382601Y0020566D01*
X0382639Y0020413D01*
X0382672Y0020258D01*
X0382702Y0020102D01*
X0382728Y0019946D01*
X0382749Y0019789D01*
X0382767Y0019632D01*
X0382781Y0019474D01*
X0382791Y0019316D01*
X0382797Y0019158D01*
X0382799Y0019000D01*
X0382797Y0018842D01*
X0382791Y0018684D01*
X0382781Y0018526D01*
X0382767Y0018368D01*
X0382749Y0018211D01*
X0382728Y0018054D01*
X0382702Y0017898D01*
X0382672Y0017742D01*
X0382639Y0017587D01*
X0382601Y0017434D01*
X0382560Y0017281D01*
X0382515Y0017129D01*
X0382466Y0016978D01*
X0382413Y0016829D01*
X0382357Y0016681D01*
X0382297Y0016535D01*
X0382233Y0016390D01*
X0382165Y0016247D01*
X0382094Y0016105D01*
X0382020Y0015965D01*
X0381942Y0015828D01*
X0381860Y0015692D01*
X0381776Y0015558D01*
X0381687Y0015427D01*
X0381596Y0015298D01*
X0381501Y0015171D01*
X0381404Y0015046D01*
X0381303Y0014924D01*
X0381199Y0014805D01*
X0381092Y0014688D01*
X0380982Y0014574D01*
X0380869Y0014463D01*
X0380754Y0014354D01*
X0380636Y0014249D01*
X0380515Y0014147D01*
X0380392Y0014047D01*
X0380266Y0013951D01*
X0380138Y0013858D01*
X0380008Y0013768D01*
X0379875Y0013682D01*
X0379740Y0013598D01*
X0379604Y0013519D01*
X0379465Y0013442D01*
X0379324Y0013370D01*
X0379182Y0013300D01*
X0379038Y0013235D01*
X0378892Y0013173D01*
X0378745Y0013115D01*
X0378596Y0013060D01*
X0378446Y0013009D01*
X0378295Y0012962D01*
X0378143Y0012919D01*
X0377990Y0012880D01*
X0377835Y0012844D01*
X0377680Y0012813D01*
X0377524Y0012785D01*
X0377368Y0012761D01*
X0377211Y0012741D01*
X0377053Y0012725D01*
X0376896Y0012713D01*
X0376737Y0012705D01*
X0376579Y0012701D01*
X0376421Y0012701D01*
X0376263Y0012705D01*
X0376104Y0012713D01*
X0375947Y0012725D01*
X0375789Y0012741D01*
X0375632Y0012761D01*
X0375476Y0012785D01*
X0375320Y0012813D01*
X0375165Y0012844D01*
X0375010Y0012880D01*
X0374857Y0012919D01*
X0374705Y0012962D01*
X0374554Y0013009D01*
X0374404Y0013060D01*
X0374255Y0013115D01*
X0374108Y0013173D01*
X0373962Y0013235D01*
X0373818Y0013300D01*
X0373676Y0013370D01*
X0373535Y0013442D01*
X0373396Y0013519D01*
X0373260Y0013598D01*
X0373125Y0013682D01*
X0372992Y0013768D01*
X0372862Y0013858D01*
X0372734Y0013951D01*
X0372608Y0014047D01*
X0372485Y0014147D01*
X0372364Y0014249D01*
X0372246Y0014354D01*
X0372131Y0014463D01*
X0372018Y0014574D01*
X0371908Y0014688D01*
X0371801Y0014805D01*
X0371697Y0014924D01*
X0371596Y0015046D01*
X0371499Y0015171D01*
X0371404Y0015298D01*
X0371313Y0015427D01*
X0371224Y0015558D01*
X0371140Y0015692D01*
X0371058Y0015828D01*
X0370980Y0015965D01*
X0370906Y0016105D01*
X0370835Y0016247D01*
X0370767Y0016390D01*
X0370703Y0016535D01*
X0370643Y0016681D01*
X0370587Y0016829D01*
X0370534Y0016978D01*
X0370485Y0017129D01*
X0370440Y0017281D01*
X0370399Y0017434D01*
X0370361Y0017587D01*
X0370328Y0017742D01*
X0370298Y0017898D01*
X0370272Y0018054D01*
X0370251Y0018211D01*
X0370233Y0018368D01*
X0370219Y0018526D01*
X0370209Y0018684D01*
X0370203Y0018842D01*
X0370201Y0019000D01*
X0370201Y0376500D02*
X0370203Y0376658D01*
X0370209Y0376816D01*
X0370219Y0376974D01*
X0370233Y0377132D01*
X0370251Y0377289D01*
X0370272Y0377446D01*
X0370298Y0377602D01*
X0370328Y0377758D01*
X0370361Y0377913D01*
X0370399Y0378066D01*
X0370440Y0378219D01*
X0370485Y0378371D01*
X0370534Y0378522D01*
X0370587Y0378671D01*
X0370643Y0378819D01*
X0370703Y0378965D01*
X0370767Y0379110D01*
X0370835Y0379253D01*
X0370906Y0379395D01*
X0370980Y0379535D01*
X0371058Y0379672D01*
X0371140Y0379808D01*
X0371224Y0379942D01*
X0371313Y0380073D01*
X0371404Y0380202D01*
X0371499Y0380329D01*
X0371596Y0380454D01*
X0371697Y0380576D01*
X0371801Y0380695D01*
X0371908Y0380812D01*
X0372018Y0380926D01*
X0372131Y0381037D01*
X0372246Y0381146D01*
X0372364Y0381251D01*
X0372485Y0381353D01*
X0372608Y0381453D01*
X0372734Y0381549D01*
X0372862Y0381642D01*
X0372992Y0381732D01*
X0373125Y0381818D01*
X0373260Y0381902D01*
X0373396Y0381981D01*
X0373535Y0382058D01*
X0373676Y0382130D01*
X0373818Y0382200D01*
X0373962Y0382265D01*
X0374108Y0382327D01*
X0374255Y0382385D01*
X0374404Y0382440D01*
X0374554Y0382491D01*
X0374705Y0382538D01*
X0374857Y0382581D01*
X0375010Y0382620D01*
X0375165Y0382656D01*
X0375320Y0382687D01*
X0375476Y0382715D01*
X0375632Y0382739D01*
X0375789Y0382759D01*
X0375947Y0382775D01*
X0376104Y0382787D01*
X0376263Y0382795D01*
X0376421Y0382799D01*
X0376579Y0382799D01*
X0376737Y0382795D01*
X0376896Y0382787D01*
X0377053Y0382775D01*
X0377211Y0382759D01*
X0377368Y0382739D01*
X0377524Y0382715D01*
X0377680Y0382687D01*
X0377835Y0382656D01*
X0377990Y0382620D01*
X0378143Y0382581D01*
X0378295Y0382538D01*
X0378446Y0382491D01*
X0378596Y0382440D01*
X0378745Y0382385D01*
X0378892Y0382327D01*
X0379038Y0382265D01*
X0379182Y0382200D01*
X0379324Y0382130D01*
X0379465Y0382058D01*
X0379604Y0381981D01*
X0379740Y0381902D01*
X0379875Y0381818D01*
X0380008Y0381732D01*
X0380138Y0381642D01*
X0380266Y0381549D01*
X0380392Y0381453D01*
X0380515Y0381353D01*
X0380636Y0381251D01*
X0380754Y0381146D01*
X0380869Y0381037D01*
X0380982Y0380926D01*
X0381092Y0380812D01*
X0381199Y0380695D01*
X0381303Y0380576D01*
X0381404Y0380454D01*
X0381501Y0380329D01*
X0381596Y0380202D01*
X0381687Y0380073D01*
X0381776Y0379942D01*
X0381860Y0379808D01*
X0381942Y0379672D01*
X0382020Y0379535D01*
X0382094Y0379395D01*
X0382165Y0379253D01*
X0382233Y0379110D01*
X0382297Y0378965D01*
X0382357Y0378819D01*
X0382413Y0378671D01*
X0382466Y0378522D01*
X0382515Y0378371D01*
X0382560Y0378219D01*
X0382601Y0378066D01*
X0382639Y0377913D01*
X0382672Y0377758D01*
X0382702Y0377602D01*
X0382728Y0377446D01*
X0382749Y0377289D01*
X0382767Y0377132D01*
X0382781Y0376974D01*
X0382791Y0376816D01*
X0382797Y0376658D01*
X0382799Y0376500D01*
X0382797Y0376342D01*
X0382791Y0376184D01*
X0382781Y0376026D01*
X0382767Y0375868D01*
X0382749Y0375711D01*
X0382728Y0375554D01*
X0382702Y0375398D01*
X0382672Y0375242D01*
X0382639Y0375087D01*
X0382601Y0374934D01*
X0382560Y0374781D01*
X0382515Y0374629D01*
X0382466Y0374478D01*
X0382413Y0374329D01*
X0382357Y0374181D01*
X0382297Y0374035D01*
X0382233Y0373890D01*
X0382165Y0373747D01*
X0382094Y0373605D01*
X0382020Y0373465D01*
X0381942Y0373328D01*
X0381860Y0373192D01*
X0381776Y0373058D01*
X0381687Y0372927D01*
X0381596Y0372798D01*
X0381501Y0372671D01*
X0381404Y0372546D01*
X0381303Y0372424D01*
X0381199Y0372305D01*
X0381092Y0372188D01*
X0380982Y0372074D01*
X0380869Y0371963D01*
X0380754Y0371854D01*
X0380636Y0371749D01*
X0380515Y0371647D01*
X0380392Y0371547D01*
X0380266Y0371451D01*
X0380138Y0371358D01*
X0380008Y0371268D01*
X0379875Y0371182D01*
X0379740Y0371098D01*
X0379604Y0371019D01*
X0379465Y0370942D01*
X0379324Y0370870D01*
X0379182Y0370800D01*
X0379038Y0370735D01*
X0378892Y0370673D01*
X0378745Y0370615D01*
X0378596Y0370560D01*
X0378446Y0370509D01*
X0378295Y0370462D01*
X0378143Y0370419D01*
X0377990Y0370380D01*
X0377835Y0370344D01*
X0377680Y0370313D01*
X0377524Y0370285D01*
X0377368Y0370261D01*
X0377211Y0370241D01*
X0377053Y0370225D01*
X0376896Y0370213D01*
X0376737Y0370205D01*
X0376579Y0370201D01*
X0376421Y0370201D01*
X0376263Y0370205D01*
X0376104Y0370213D01*
X0375947Y0370225D01*
X0375789Y0370241D01*
X0375632Y0370261D01*
X0375476Y0370285D01*
X0375320Y0370313D01*
X0375165Y0370344D01*
X0375010Y0370380D01*
X0374857Y0370419D01*
X0374705Y0370462D01*
X0374554Y0370509D01*
X0374404Y0370560D01*
X0374255Y0370615D01*
X0374108Y0370673D01*
X0373962Y0370735D01*
X0373818Y0370800D01*
X0373676Y0370870D01*
X0373535Y0370942D01*
X0373396Y0371019D01*
X0373260Y0371098D01*
X0373125Y0371182D01*
X0372992Y0371268D01*
X0372862Y0371358D01*
X0372734Y0371451D01*
X0372608Y0371547D01*
X0372485Y0371647D01*
X0372364Y0371749D01*
X0372246Y0371854D01*
X0372131Y0371963D01*
X0372018Y0372074D01*
X0371908Y0372188D01*
X0371801Y0372305D01*
X0371697Y0372424D01*
X0371596Y0372546D01*
X0371499Y0372671D01*
X0371404Y0372798D01*
X0371313Y0372927D01*
X0371224Y0373058D01*
X0371140Y0373192D01*
X0371058Y0373328D01*
X0370980Y0373465D01*
X0370906Y0373605D01*
X0370835Y0373747D01*
X0370767Y0373890D01*
X0370703Y0374035D01*
X0370643Y0374181D01*
X0370587Y0374329D01*
X0370534Y0374478D01*
X0370485Y0374629D01*
X0370440Y0374781D01*
X0370399Y0374934D01*
X0370361Y0375087D01*
X0370328Y0375242D01*
X0370298Y0375398D01*
X0370272Y0375554D01*
X0370251Y0375711D01*
X0370233Y0375868D01*
X0370219Y0376026D01*
X0370209Y0376184D01*
X0370203Y0376342D01*
X0370201Y0376500D01*
X0075201Y0376500D02*
X0075203Y0376658D01*
X0075209Y0376816D01*
X0075219Y0376974D01*
X0075233Y0377132D01*
X0075251Y0377289D01*
X0075272Y0377446D01*
X0075298Y0377602D01*
X0075328Y0377758D01*
X0075361Y0377913D01*
X0075399Y0378066D01*
X0075440Y0378219D01*
X0075485Y0378371D01*
X0075534Y0378522D01*
X0075587Y0378671D01*
X0075643Y0378819D01*
X0075703Y0378965D01*
X0075767Y0379110D01*
X0075835Y0379253D01*
X0075906Y0379395D01*
X0075980Y0379535D01*
X0076058Y0379672D01*
X0076140Y0379808D01*
X0076224Y0379942D01*
X0076313Y0380073D01*
X0076404Y0380202D01*
X0076499Y0380329D01*
X0076596Y0380454D01*
X0076697Y0380576D01*
X0076801Y0380695D01*
X0076908Y0380812D01*
X0077018Y0380926D01*
X0077131Y0381037D01*
X0077246Y0381146D01*
X0077364Y0381251D01*
X0077485Y0381353D01*
X0077608Y0381453D01*
X0077734Y0381549D01*
X0077862Y0381642D01*
X0077992Y0381732D01*
X0078125Y0381818D01*
X0078260Y0381902D01*
X0078396Y0381981D01*
X0078535Y0382058D01*
X0078676Y0382130D01*
X0078818Y0382200D01*
X0078962Y0382265D01*
X0079108Y0382327D01*
X0079255Y0382385D01*
X0079404Y0382440D01*
X0079554Y0382491D01*
X0079705Y0382538D01*
X0079857Y0382581D01*
X0080010Y0382620D01*
X0080165Y0382656D01*
X0080320Y0382687D01*
X0080476Y0382715D01*
X0080632Y0382739D01*
X0080789Y0382759D01*
X0080947Y0382775D01*
X0081104Y0382787D01*
X0081263Y0382795D01*
X0081421Y0382799D01*
X0081579Y0382799D01*
X0081737Y0382795D01*
X0081896Y0382787D01*
X0082053Y0382775D01*
X0082211Y0382759D01*
X0082368Y0382739D01*
X0082524Y0382715D01*
X0082680Y0382687D01*
X0082835Y0382656D01*
X0082990Y0382620D01*
X0083143Y0382581D01*
X0083295Y0382538D01*
X0083446Y0382491D01*
X0083596Y0382440D01*
X0083745Y0382385D01*
X0083892Y0382327D01*
X0084038Y0382265D01*
X0084182Y0382200D01*
X0084324Y0382130D01*
X0084465Y0382058D01*
X0084604Y0381981D01*
X0084740Y0381902D01*
X0084875Y0381818D01*
X0085008Y0381732D01*
X0085138Y0381642D01*
X0085266Y0381549D01*
X0085392Y0381453D01*
X0085515Y0381353D01*
X0085636Y0381251D01*
X0085754Y0381146D01*
X0085869Y0381037D01*
X0085982Y0380926D01*
X0086092Y0380812D01*
X0086199Y0380695D01*
X0086303Y0380576D01*
X0086404Y0380454D01*
X0086501Y0380329D01*
X0086596Y0380202D01*
X0086687Y0380073D01*
X0086776Y0379942D01*
X0086860Y0379808D01*
X0086942Y0379672D01*
X0087020Y0379535D01*
X0087094Y0379395D01*
X0087165Y0379253D01*
X0087233Y0379110D01*
X0087297Y0378965D01*
X0087357Y0378819D01*
X0087413Y0378671D01*
X0087466Y0378522D01*
X0087515Y0378371D01*
X0087560Y0378219D01*
X0087601Y0378066D01*
X0087639Y0377913D01*
X0087672Y0377758D01*
X0087702Y0377602D01*
X0087728Y0377446D01*
X0087749Y0377289D01*
X0087767Y0377132D01*
X0087781Y0376974D01*
X0087791Y0376816D01*
X0087797Y0376658D01*
X0087799Y0376500D01*
X0087797Y0376342D01*
X0087791Y0376184D01*
X0087781Y0376026D01*
X0087767Y0375868D01*
X0087749Y0375711D01*
X0087728Y0375554D01*
X0087702Y0375398D01*
X0087672Y0375242D01*
X0087639Y0375087D01*
X0087601Y0374934D01*
X0087560Y0374781D01*
X0087515Y0374629D01*
X0087466Y0374478D01*
X0087413Y0374329D01*
X0087357Y0374181D01*
X0087297Y0374035D01*
X0087233Y0373890D01*
X0087165Y0373747D01*
X0087094Y0373605D01*
X0087020Y0373465D01*
X0086942Y0373328D01*
X0086860Y0373192D01*
X0086776Y0373058D01*
X0086687Y0372927D01*
X0086596Y0372798D01*
X0086501Y0372671D01*
X0086404Y0372546D01*
X0086303Y0372424D01*
X0086199Y0372305D01*
X0086092Y0372188D01*
X0085982Y0372074D01*
X0085869Y0371963D01*
X0085754Y0371854D01*
X0085636Y0371749D01*
X0085515Y0371647D01*
X0085392Y0371547D01*
X0085266Y0371451D01*
X0085138Y0371358D01*
X0085008Y0371268D01*
X0084875Y0371182D01*
X0084740Y0371098D01*
X0084604Y0371019D01*
X0084465Y0370942D01*
X0084324Y0370870D01*
X0084182Y0370800D01*
X0084038Y0370735D01*
X0083892Y0370673D01*
X0083745Y0370615D01*
X0083596Y0370560D01*
X0083446Y0370509D01*
X0083295Y0370462D01*
X0083143Y0370419D01*
X0082990Y0370380D01*
X0082835Y0370344D01*
X0082680Y0370313D01*
X0082524Y0370285D01*
X0082368Y0370261D01*
X0082211Y0370241D01*
X0082053Y0370225D01*
X0081896Y0370213D01*
X0081737Y0370205D01*
X0081579Y0370201D01*
X0081421Y0370201D01*
X0081263Y0370205D01*
X0081104Y0370213D01*
X0080947Y0370225D01*
X0080789Y0370241D01*
X0080632Y0370261D01*
X0080476Y0370285D01*
X0080320Y0370313D01*
X0080165Y0370344D01*
X0080010Y0370380D01*
X0079857Y0370419D01*
X0079705Y0370462D01*
X0079554Y0370509D01*
X0079404Y0370560D01*
X0079255Y0370615D01*
X0079108Y0370673D01*
X0078962Y0370735D01*
X0078818Y0370800D01*
X0078676Y0370870D01*
X0078535Y0370942D01*
X0078396Y0371019D01*
X0078260Y0371098D01*
X0078125Y0371182D01*
X0077992Y0371268D01*
X0077862Y0371358D01*
X0077734Y0371451D01*
X0077608Y0371547D01*
X0077485Y0371647D01*
X0077364Y0371749D01*
X0077246Y0371854D01*
X0077131Y0371963D01*
X0077018Y0372074D01*
X0076908Y0372188D01*
X0076801Y0372305D01*
X0076697Y0372424D01*
X0076596Y0372546D01*
X0076499Y0372671D01*
X0076404Y0372798D01*
X0076313Y0372927D01*
X0076224Y0373058D01*
X0076140Y0373192D01*
X0076058Y0373328D01*
X0075980Y0373465D01*
X0075906Y0373605D01*
X0075835Y0373747D01*
X0075767Y0373890D01*
X0075703Y0374035D01*
X0075643Y0374181D01*
X0075587Y0374329D01*
X0075534Y0374478D01*
X0075485Y0374629D01*
X0075440Y0374781D01*
X0075399Y0374934D01*
X0075361Y0375087D01*
X0075328Y0375242D01*
X0075298Y0375398D01*
X0075272Y0375554D01*
X0075251Y0375711D01*
X0075233Y0375868D01*
X0075219Y0376026D01*
X0075209Y0376184D01*
X0075203Y0376342D01*
X0075201Y0376500D01*
D11*
X0128900Y0264000D02*
X0134100Y0264000D01*
X0134100Y0254000D02*
X0128900Y0254000D01*
X0128900Y0244000D02*
X0134100Y0244000D01*
X0134100Y0234000D02*
X0128900Y0234000D01*
X0128900Y0224000D02*
X0134100Y0224000D01*
X0134100Y0214000D02*
X0128900Y0214000D01*
X0128900Y0204000D02*
X0134100Y0204000D01*
X0158900Y0204000D02*
X0164100Y0204000D01*
X0164100Y0214000D02*
X0158900Y0214000D01*
X0158900Y0224000D02*
X0164100Y0224000D01*
X0164100Y0234000D02*
X0158900Y0234000D01*
X0158900Y0244000D02*
X0164100Y0244000D01*
X0164100Y0254000D02*
X0158900Y0254000D01*
X0158900Y0264000D02*
X0164100Y0264000D01*
X0226500Y0219100D02*
X0226500Y0213900D01*
X0236500Y0213900D02*
X0236500Y0219100D01*
X0246500Y0219100D02*
X0246500Y0213900D01*
X0256500Y0213900D02*
X0256500Y0219100D01*
X0266500Y0219100D02*
X0266500Y0213900D01*
X0276500Y0213900D02*
X0276500Y0219100D01*
X0286500Y0219100D02*
X0286500Y0213900D01*
X0296500Y0213900D02*
X0296500Y0219100D01*
X0296500Y0189100D02*
X0296500Y0183900D01*
X0286500Y0183900D02*
X0286500Y0189100D01*
X0276500Y0189100D02*
X0276500Y0183900D01*
X0266500Y0183900D02*
X0266500Y0189100D01*
X0256500Y0189100D02*
X0256500Y0183900D01*
X0246500Y0183900D02*
X0246500Y0189100D01*
X0236500Y0189100D02*
X0236500Y0183900D01*
X0226500Y0183900D02*
X0226500Y0189100D01*
X0164100Y0179000D02*
X0158900Y0179000D01*
X0158900Y0169000D02*
X0164100Y0169000D01*
X0164100Y0159000D02*
X0158900Y0159000D01*
X0158900Y0149000D02*
X0164100Y0149000D01*
X0164100Y0139000D02*
X0158900Y0139000D01*
X0158900Y0129000D02*
X0164100Y0129000D01*
X0164100Y0119000D02*
X0158900Y0119000D01*
X0134100Y0119000D02*
X0128900Y0119000D01*
X0128900Y0129000D02*
X0134100Y0129000D01*
X0134100Y0139000D02*
X0128900Y0139000D01*
X0128900Y0149000D02*
X0134100Y0149000D01*
X0134100Y0159000D02*
X0128900Y0159000D01*
X0128900Y0169000D02*
X0134100Y0169000D01*
X0134100Y0179000D02*
X0128900Y0179000D01*
X0348900Y0149000D02*
X0354100Y0149000D01*
X0354100Y0139000D02*
X0348900Y0139000D01*
X0348900Y0129000D02*
X0354100Y0129000D01*
X0354100Y0119000D02*
X0348900Y0119000D01*
X0348900Y0109000D02*
X0354100Y0109000D01*
X0354100Y0099000D02*
X0348900Y0099000D01*
X0348900Y0089000D02*
X0354100Y0089000D01*
X0354100Y0079000D02*
X0348900Y0079000D01*
X0378900Y0079000D02*
X0384100Y0079000D01*
X0384100Y0089000D02*
X0378900Y0089000D01*
X0378900Y0099000D02*
X0384100Y0099000D01*
X0384100Y0109000D02*
X0378900Y0109000D01*
X0378900Y0119000D02*
X0384100Y0119000D01*
X0384100Y0129000D02*
X0378900Y0129000D01*
X0378900Y0139000D02*
X0384100Y0139000D01*
X0384100Y0149000D02*
X0378900Y0149000D01*
X0378900Y0229000D02*
X0384100Y0229000D01*
X0384100Y0239000D02*
X0378900Y0239000D01*
X0378900Y0249000D02*
X0384100Y0249000D01*
X0384100Y0259000D02*
X0378900Y0259000D01*
X0378900Y0269000D02*
X0384100Y0269000D01*
X0384100Y0279000D02*
X0378900Y0279000D01*
X0378900Y0289000D02*
X0384100Y0289000D01*
X0384100Y0299000D02*
X0378900Y0299000D01*
X0354100Y0299000D02*
X0348900Y0299000D01*
X0348900Y0289000D02*
X0354100Y0289000D01*
X0354100Y0279000D02*
X0348900Y0279000D01*
X0348900Y0269000D02*
X0354100Y0269000D01*
X0354100Y0259000D02*
X0348900Y0259000D01*
X0348900Y0249000D02*
X0354100Y0249000D01*
X0354100Y0239000D02*
X0348900Y0239000D01*
X0348900Y0229000D02*
X0354100Y0229000D01*
D12*
X0296500Y0169000D03*
X0276500Y0169000D03*
X0281500Y0114000D03*
X0241500Y0114000D03*
X0174000Y0159000D03*
X0174000Y0179000D03*
X0174000Y0244000D03*
X0174000Y0264000D03*
X0166500Y0276500D03*
X0126500Y0276500D03*
X0104000Y0276500D03*
X0064000Y0276500D03*
X0061500Y0224000D03*
X0061500Y0214000D03*
X0061500Y0204000D03*
X0061500Y0194000D03*
X0091500Y0194000D03*
X0091500Y0204000D03*
X0091500Y0214000D03*
X0091500Y0224000D03*
X0101500Y0139000D03*
X0101500Y0129000D03*
X0061500Y0129000D03*
X0061500Y0139000D03*
X0239000Y0271500D03*
X0279000Y0271500D03*
X0341500Y0079000D03*
X0341500Y0069000D03*
X0341500Y0059000D03*
X0341500Y0049000D03*
X0381500Y0049000D03*
X0381500Y0059000D03*
D13*
X0351500Y0329000D03*
X0011500Y0224000D03*
X0011500Y0214000D03*
X0011500Y0204000D03*
X0011500Y0194000D03*
X0011500Y0184000D03*
X0011500Y0164000D03*
X0011500Y0149000D03*
X0011500Y0134000D03*
D14*
X0061700Y0104000D03*
X0061700Y0099000D03*
X0061700Y0094000D03*
X0061700Y0089000D03*
X0061700Y0084000D03*
X0061700Y0079000D03*
X0061700Y0074000D03*
X0061700Y0069000D03*
X0061700Y0064000D03*
X0061700Y0059000D03*
X0061700Y0054000D03*
X0061700Y0049000D03*
X0101300Y0049000D03*
X0101300Y0054000D03*
X0101300Y0059000D03*
X0101300Y0064000D03*
X0101300Y0069000D03*
X0101300Y0074000D03*
X0101300Y0079000D03*
X0101300Y0084000D03*
X0101300Y0089000D03*
X0101300Y0094000D03*
X0101300Y0099000D03*
X0101300Y0104000D03*
X0126700Y0089000D03*
X0126700Y0084000D03*
X0126700Y0079000D03*
X0126700Y0074000D03*
X0126700Y0069000D03*
X0126700Y0064000D03*
X0126700Y0059000D03*
X0126700Y0054000D03*
X0126700Y0049000D03*
X0126700Y0044000D03*
X0126700Y0039000D03*
X0126700Y0034000D03*
X0166300Y0034000D03*
X0166300Y0039000D03*
X0166300Y0044000D03*
X0166300Y0049000D03*
X0166300Y0054000D03*
X0166300Y0059000D03*
X0166300Y0064000D03*
X0166300Y0069000D03*
X0166300Y0074000D03*
X0166300Y0079000D03*
X0166300Y0084000D03*
X0166300Y0089000D03*
X0241700Y0089000D03*
X0241700Y0084000D03*
X0241700Y0079000D03*
X0241700Y0074000D03*
X0241700Y0069000D03*
X0241700Y0064000D03*
X0241700Y0059000D03*
X0241700Y0054000D03*
X0241700Y0049000D03*
X0241700Y0044000D03*
X0241700Y0039000D03*
X0241700Y0034000D03*
X0281300Y0034000D03*
X0281300Y0039000D03*
X0281300Y0044000D03*
X0281300Y0049000D03*
X0281300Y0054000D03*
X0281300Y0059000D03*
X0281300Y0064000D03*
X0281300Y0069000D03*
X0281300Y0074000D03*
X0281300Y0079000D03*
X0281300Y0084000D03*
X0281300Y0089000D03*
X0278800Y0279000D03*
X0278800Y0284000D03*
X0278800Y0289000D03*
X0278800Y0294000D03*
X0278800Y0299000D03*
X0278800Y0304000D03*
X0278800Y0309000D03*
X0278800Y0314000D03*
X0278800Y0319000D03*
X0278800Y0324000D03*
X0278800Y0329000D03*
X0278800Y0334000D03*
X0239200Y0334000D03*
X0239200Y0329000D03*
X0239200Y0324000D03*
X0239200Y0319000D03*
X0239200Y0314000D03*
X0239200Y0309000D03*
X0239200Y0304000D03*
X0239200Y0299000D03*
X0239200Y0294000D03*
X0239200Y0289000D03*
X0239200Y0284000D03*
X0239200Y0279000D03*
X0166300Y0284000D03*
X0166300Y0289000D03*
X0166300Y0294000D03*
X0166300Y0299000D03*
X0166300Y0304000D03*
X0166300Y0309000D03*
X0166300Y0314000D03*
X0166300Y0319000D03*
X0166300Y0324000D03*
X0166300Y0329000D03*
X0166300Y0334000D03*
X0166300Y0339000D03*
X0126700Y0339000D03*
X0126700Y0334000D03*
X0126700Y0329000D03*
X0126700Y0324000D03*
X0126700Y0319000D03*
X0126700Y0314000D03*
X0126700Y0309000D03*
X0126700Y0304000D03*
X0126700Y0299000D03*
X0126700Y0294000D03*
X0126700Y0289000D03*
X0126700Y0284000D03*
X0103800Y0284000D03*
X0103800Y0289000D03*
X0103800Y0294000D03*
X0103800Y0299000D03*
X0103800Y0304000D03*
X0103800Y0309000D03*
X0103800Y0314000D03*
X0103800Y0319000D03*
X0103800Y0324000D03*
X0103800Y0329000D03*
X0103800Y0334000D03*
X0103800Y0339000D03*
X0064200Y0339000D03*
X0064200Y0334000D03*
X0064200Y0329000D03*
X0064200Y0324000D03*
X0064200Y0319000D03*
X0064200Y0314000D03*
X0064200Y0309000D03*
X0064200Y0304000D03*
X0064200Y0299000D03*
X0064200Y0294000D03*
X0064200Y0289000D03*
X0064200Y0284000D03*
D15*
X0036500Y0279000D03*
X0036500Y0289000D03*
X0026500Y0289000D03*
X0026500Y0279000D03*
X0026500Y0269000D03*
X0026500Y0259000D03*
X0036500Y0259000D03*
X0036500Y0269000D03*
X0036500Y0249000D03*
X0036500Y0239000D03*
X0026500Y0239000D03*
X0026500Y0249000D03*
X0026500Y0229000D03*
X0026500Y0219000D03*
X0036500Y0219000D03*
X0036500Y0229000D03*
X0036500Y0179000D03*
X0026500Y0179000D03*
X0026500Y0169000D03*
X0026500Y0159000D03*
X0036500Y0159000D03*
X0036500Y0169000D03*
X0036500Y0149000D03*
X0036500Y0139000D03*
X0026500Y0139000D03*
X0026500Y0149000D03*
X0026500Y0129000D03*
X0026500Y0119000D03*
X0036500Y0119000D03*
X0036500Y0129000D03*
X0036500Y0109000D03*
X0026500Y0109000D03*
X0026500Y0099000D03*
X0026500Y0089000D03*
X0036500Y0089000D03*
X0036500Y0099000D03*
X0036500Y0079000D03*
X0036500Y0069000D03*
X0026500Y0069000D03*
X0026500Y0079000D03*
X0026500Y0059000D03*
X0026500Y0049000D03*
X0036500Y0049000D03*
X0036500Y0059000D03*
X0036500Y0039000D03*
X0036500Y0029000D03*
X0026500Y0029000D03*
X0026500Y0039000D03*
X0026500Y0019000D03*
X0036500Y0019000D03*
X0196500Y0019000D03*
X0206500Y0019000D03*
X0206500Y0029000D03*
X0206500Y0039000D03*
X0196500Y0039000D03*
X0196500Y0029000D03*
X0196500Y0049000D03*
X0196500Y0059000D03*
X0206500Y0059000D03*
X0206500Y0049000D03*
X0206500Y0069000D03*
X0206500Y0079000D03*
X0196500Y0079000D03*
X0196500Y0069000D03*
X0196500Y0089000D03*
X0196500Y0099000D03*
X0206500Y0099000D03*
X0206500Y0089000D03*
X0206500Y0109000D03*
X0196500Y0109000D03*
X0196500Y0119000D03*
X0196500Y0129000D03*
X0206500Y0129000D03*
X0206500Y0119000D03*
X0206500Y0139000D03*
X0206500Y0149000D03*
X0196500Y0149000D03*
X0196500Y0139000D03*
X0196500Y0159000D03*
X0196500Y0169000D03*
X0206500Y0169000D03*
X0206500Y0159000D03*
X0206500Y0179000D03*
X0196500Y0179000D03*
X0196500Y0219000D03*
X0196500Y0229000D03*
X0206500Y0229000D03*
X0206500Y0219000D03*
X0206500Y0239000D03*
X0206500Y0249000D03*
X0196500Y0249000D03*
X0196500Y0239000D03*
X0196500Y0259000D03*
X0196500Y0269000D03*
X0206500Y0269000D03*
X0206500Y0259000D03*
X0206500Y0279000D03*
X0206500Y0289000D03*
X0196500Y0289000D03*
X0196500Y0279000D03*
X0196500Y0299000D03*
X0196500Y0309000D03*
X0206500Y0309000D03*
X0206500Y0299000D03*
X0206500Y0319000D03*
X0196500Y0319000D03*
X0196500Y0329000D03*
X0196500Y0339000D03*
X0206500Y0339000D03*
X0206500Y0329000D03*
X0206500Y0349000D03*
X0206500Y0359000D03*
X0196500Y0359000D03*
X0196500Y0349000D03*
X0196500Y0369000D03*
X0196500Y0379000D03*
X0206500Y0379000D03*
X0206500Y0369000D03*
X0314000Y0369000D03*
X0314000Y0379000D03*
X0324000Y0379000D03*
X0324000Y0369000D03*
X0324000Y0359000D03*
X0324000Y0349000D03*
X0314000Y0349000D03*
X0314000Y0359000D03*
X0314000Y0339000D03*
X0314000Y0329000D03*
X0324000Y0329000D03*
X0324000Y0339000D03*
X0324000Y0319000D03*
X0314000Y0319000D03*
X0314000Y0309000D03*
X0314000Y0299000D03*
X0324000Y0299000D03*
X0324000Y0309000D03*
X0324000Y0289000D03*
X0324000Y0279000D03*
X0314000Y0279000D03*
X0314000Y0289000D03*
X0314000Y0269000D03*
X0314000Y0259000D03*
X0324000Y0259000D03*
X0324000Y0269000D03*
X0324000Y0249000D03*
X0324000Y0239000D03*
X0314000Y0239000D03*
X0314000Y0249000D03*
X0314000Y0229000D03*
X0314000Y0219000D03*
X0324000Y0219000D03*
X0324000Y0229000D03*
X0324000Y0179000D03*
X0314000Y0179000D03*
X0314000Y0169000D03*
X0314000Y0159000D03*
X0324000Y0159000D03*
X0324000Y0169000D03*
X0324000Y0149000D03*
X0324000Y0139000D03*
X0314000Y0139000D03*
X0314000Y0149000D03*
X0314000Y0129000D03*
X0314000Y0119000D03*
X0324000Y0119000D03*
X0324000Y0129000D03*
X0324000Y0109000D03*
X0314000Y0109000D03*
X0314000Y0099000D03*
X0314000Y0089000D03*
X0324000Y0089000D03*
X0324000Y0099000D03*
X0324000Y0079000D03*
X0324000Y0069000D03*
X0314000Y0069000D03*
X0314000Y0079000D03*
X0314000Y0059000D03*
X0314000Y0049000D03*
X0324000Y0049000D03*
X0324000Y0059000D03*
X0324000Y0039000D03*
X0324000Y0029000D03*
X0314000Y0029000D03*
X0314000Y0039000D03*
X0314000Y0019000D03*
X0324000Y0019000D03*
X0036500Y0299000D03*
X0036500Y0309000D03*
X0026500Y0309000D03*
X0026500Y0299000D03*
X0026500Y0319000D03*
X0036500Y0319000D03*
X0036500Y0329000D03*
X0036500Y0339000D03*
X0026500Y0339000D03*
X0026500Y0329000D03*
X0026500Y0349000D03*
X0026500Y0359000D03*
X0036500Y0359000D03*
X0036500Y0349000D03*
X0036500Y0369000D03*
X0036500Y0379000D03*
X0026500Y0379000D03*
X0026500Y0369000D03*
D16*
X0069000Y0351500D03*
X0099000Y0351500D03*
X0131500Y0351500D03*
X0161500Y0351500D03*
X0244000Y0346500D03*
X0274000Y0346500D03*
X0351500Y0216500D03*
X0381500Y0216500D03*
X0276500Y0101500D03*
X0246500Y0101500D03*
X0161500Y0101500D03*
X0131500Y0101500D03*
X0101500Y0116500D03*
X0071500Y0116500D03*
D17*
X0366000Y0319000D02*
X0372000Y0319000D01*
X0372000Y0329000D02*
X0366000Y0329000D01*
X0366000Y0339000D02*
X0372000Y0339000D01*
X0372000Y0349000D02*
X0366000Y0349000D01*
D18*
X0351500Y0319000D03*
D19*
X0341500Y0319000D02*
X0341500Y0269000D01*
X0346500Y0264000D01*
X0356500Y0264000D01*
X0361500Y0259000D01*
X0361500Y0189000D01*
X0354000Y0181500D01*
X0354000Y0156500D01*
X0364000Y0146500D01*
X0364000Y0139000D01*
X0351500Y0149000D02*
X0351500Y0206500D01*
X0341500Y0214000D02*
X0349000Y0221500D01*
X0354000Y0221500D01*
X0359000Y0226500D01*
X0359000Y0244000D01*
X0354000Y0249000D01*
X0351500Y0249000D01*
X0351500Y0239000D02*
X0346500Y0239000D01*
X0339000Y0231500D01*
X0339000Y0166500D01*
X0336500Y0164000D01*
X0336500Y0101500D01*
X0349000Y0089000D01*
X0351500Y0089000D01*
X0351500Y0099000D02*
X0344000Y0099000D01*
X0339000Y0104000D01*
X0339000Y0154000D01*
X0344000Y0159000D01*
X0344000Y0179000D01*
X0341500Y0181500D01*
X0341500Y0214000D01*
X0336500Y0216500D02*
X0286500Y0166500D01*
X0286500Y0154000D01*
X0279000Y0146500D01*
X0269000Y0144000D02*
X0284000Y0159000D01*
X0284000Y0169000D01*
X0291500Y0176500D01*
X0291500Y0196500D01*
X0301500Y0206500D01*
X0301500Y0256500D01*
X0286500Y0271500D01*
X0279000Y0271500D02*
X0279000Y0279000D01*
X0278800Y0279000D01*
X0278800Y0284000D02*
X0291500Y0284000D01*
X0306500Y0269000D01*
X0306500Y0226500D01*
X0314000Y0219000D01*
X0316500Y0209000D02*
X0304000Y0221500D01*
X0304000Y0264000D01*
X0296500Y0271500D01*
X0291500Y0261500D02*
X0291500Y0206500D01*
X0281500Y0196500D01*
X0281500Y0164000D01*
X0266500Y0149000D01*
X0266500Y0071500D01*
X0254000Y0059000D01*
X0241700Y0059000D01*
X0226500Y0059000D01*
X0231500Y0054000D02*
X0241700Y0054000D01*
X0254000Y0054000D01*
X0269000Y0069000D01*
X0269000Y0144000D01*
X0256500Y0161500D02*
X0256500Y0081500D01*
X0254000Y0079000D01*
X0241700Y0079000D01*
X0236500Y0079000D01*
X0226500Y0089000D01*
X0226500Y0104000D01*
X0231500Y0114000D02*
X0231500Y0261500D01*
X0214000Y0279000D01*
X0214000Y0321500D01*
X0221500Y0329000D01*
X0226500Y0329000D01*
X0239200Y0329000D01*
X0239200Y0324000D02*
X0221500Y0324000D01*
X0216500Y0319000D01*
X0216500Y0281500D01*
X0246500Y0251500D01*
X0246500Y0231500D01*
X0251500Y0226500D01*
X0251500Y0206500D01*
X0241500Y0196500D01*
X0241500Y0176500D01*
X0256500Y0161500D01*
X0259000Y0166500D02*
X0251500Y0174000D01*
X0251500Y0196500D01*
X0261500Y0206500D01*
X0261500Y0221500D01*
X0249000Y0234000D01*
X0249000Y0316500D01*
X0246500Y0319000D01*
X0239200Y0319000D01*
X0226500Y0319000D01*
X0221500Y0314000D02*
X0239200Y0314000D01*
X0239200Y0309000D02*
X0226500Y0309000D01*
X0221500Y0304000D02*
X0239200Y0304000D01*
X0239200Y0299000D02*
X0226500Y0299000D01*
X0221500Y0294000D02*
X0239200Y0294000D01*
X0239200Y0289000D02*
X0226500Y0289000D01*
X0221500Y0284000D02*
X0239200Y0284000D01*
X0236500Y0256500D02*
X0236500Y0239000D01*
X0254000Y0236500D02*
X0254000Y0346500D01*
X0216500Y0384000D01*
X0201500Y0384000D01*
X0196500Y0379000D01*
X0196500Y0369000D02*
X0189000Y0361500D01*
X0189000Y0339000D01*
X0184000Y0334000D01*
X0166300Y0334000D01*
X0166300Y0339000D02*
X0164000Y0339000D01*
X0166300Y0329000D02*
X0196500Y0329000D01*
X0191500Y0324000D02*
X0196500Y0319000D01*
X0191500Y0324000D02*
X0166300Y0324000D01*
X0166300Y0319000D02*
X0186500Y0319000D01*
X0196500Y0309000D01*
X0196500Y0299000D02*
X0181500Y0314000D01*
X0166300Y0314000D01*
X0166300Y0309000D02*
X0176500Y0309000D01*
X0196500Y0289000D01*
X0191500Y0289000D02*
X0191500Y0284000D01*
X0196500Y0279000D01*
X0191500Y0279000D02*
X0191500Y0274000D01*
X0196500Y0269000D01*
X0189000Y0266500D02*
X0189000Y0276500D01*
X0171500Y0294000D01*
X0166300Y0294000D01*
X0166300Y0299000D02*
X0171500Y0299000D01*
X0191500Y0279000D01*
X0186500Y0274000D02*
X0171500Y0289000D01*
X0166300Y0289000D01*
X0166300Y0284000D02*
X0166500Y0284000D01*
X0166500Y0276500D01*
X0181500Y0264000D02*
X0181500Y0219000D01*
X0229000Y0171500D01*
X0229000Y0144000D01*
X0221500Y0136500D01*
X0221500Y0039000D01*
X0241700Y0039000D01*
X0241700Y0034000D02*
X0241500Y0034000D01*
X0241700Y0034000D02*
X0281300Y0034000D01*
X0281300Y0039000D02*
X0294000Y0039000D01*
X0314000Y0019000D01*
X0299000Y0044000D02*
X0314000Y0059000D01*
X0319000Y0054000D02*
X0314000Y0049000D01*
X0319000Y0054000D02*
X0344000Y0054000D01*
X0371500Y0081500D01*
X0371500Y0174000D01*
X0369000Y0176500D01*
X0369000Y0239000D01*
X0379000Y0249000D01*
X0381500Y0249000D01*
X0381500Y0239000D02*
X0376500Y0239000D01*
X0374000Y0236500D01*
X0374000Y0191500D01*
X0374000Y0089000D01*
X0381500Y0089000D01*
X0374000Y0089000D02*
X0374000Y0066500D01*
X0381500Y0059000D01*
X0381500Y0079000D02*
X0384000Y0079000D01*
X0389000Y0084000D01*
X0389000Y0176500D01*
X0384000Y0181500D01*
X0379000Y0186500D02*
X0389000Y0196500D01*
X0389000Y0261500D01*
X0386500Y0264000D01*
X0371500Y0264000D01*
X0366500Y0271500D02*
X0361500Y0276500D01*
X0361500Y0329000D01*
X0336500Y0354000D01*
X0319000Y0354000D01*
X0314000Y0349000D01*
X0319000Y0344000D02*
X0314000Y0339000D01*
X0319000Y0344000D02*
X0326500Y0344000D01*
X0344000Y0326500D01*
X0344000Y0274000D01*
X0349000Y0269000D01*
X0351500Y0269000D01*
X0351500Y0279000D02*
X0354000Y0279000D01*
X0364000Y0269000D01*
X0364000Y0169000D01*
X0369000Y0171500D02*
X0366500Y0174000D01*
X0366500Y0271500D01*
X0336500Y0264000D02*
X0336500Y0216500D01*
X0331500Y0216500D02*
X0316500Y0201500D01*
X0309000Y0201500D01*
X0331500Y0216500D02*
X0331500Y0284000D01*
X0314000Y0279000D02*
X0294000Y0299000D01*
X0278800Y0299000D01*
X0278800Y0294000D02*
X0291500Y0294000D01*
X0314000Y0271500D01*
X0314000Y0269000D01*
X0309000Y0271500D02*
X0309000Y0264000D01*
X0314000Y0259000D01*
X0309000Y0271500D02*
X0291500Y0289000D01*
X0278800Y0289000D01*
X0278800Y0304000D02*
X0299000Y0304000D01*
X0314000Y0289000D01*
X0314000Y0299000D02*
X0304000Y0309000D01*
X0278800Y0309000D01*
X0278800Y0314000D02*
X0309000Y0314000D01*
X0314000Y0309000D01*
X0314000Y0319000D02*
X0278800Y0319000D01*
X0278800Y0324000D02*
X0309000Y0324000D01*
X0314000Y0329000D01*
X0304000Y0334000D02*
X0326500Y0334000D01*
X0341500Y0319000D01*
X0314000Y0359000D02*
X0296500Y0341500D01*
X0296500Y0329000D01*
X0291500Y0334000D02*
X0291500Y0346500D01*
X0314000Y0369000D01*
X0314000Y0379000D02*
X0291500Y0379000D01*
X0259000Y0346500D01*
X0259000Y0239000D01*
X0266500Y0231500D01*
X0266500Y0216500D01*
X0266500Y0206500D01*
X0256500Y0196500D01*
X0256500Y0186500D01*
X0246500Y0186500D02*
X0246500Y0196500D01*
X0256500Y0206500D01*
X0256500Y0216500D01*
X0246500Y0216500D02*
X0246500Y0206500D01*
X0236500Y0196500D01*
X0236500Y0186500D01*
X0226500Y0186500D02*
X0219000Y0186500D01*
X0186500Y0219000D01*
X0186500Y0244000D01*
X0191500Y0256500D02*
X0191500Y0224000D01*
X0196500Y0219000D01*
X0186500Y0204000D02*
X0186500Y0199000D01*
X0186500Y0161500D01*
X0164000Y0139000D01*
X0161500Y0139000D01*
X0149000Y0141500D02*
X0144000Y0146500D01*
X0144000Y0151500D01*
X0146500Y0154000D01*
X0146500Y0271500D01*
X0149000Y0274000D01*
X0149000Y0294000D01*
X0126700Y0294000D01*
X0103800Y0294000D01*
X0103800Y0299000D02*
X0126700Y0299000D01*
X0141500Y0299000D01*
X0149000Y0304000D02*
X0126700Y0304000D01*
X0103800Y0304000D01*
X0103800Y0309000D02*
X0126700Y0309000D01*
X0144000Y0309000D01*
X0149000Y0314000D02*
X0126700Y0314000D01*
X0103800Y0314000D01*
X0103800Y0319000D02*
X0126700Y0319000D01*
X0144000Y0319000D01*
X0149000Y0324000D02*
X0126700Y0324000D01*
X0103800Y0324000D01*
X0103800Y0329000D02*
X0126700Y0329000D01*
X0144000Y0329000D01*
X0149000Y0334000D02*
X0126700Y0334000D01*
X0103800Y0334000D01*
X0103800Y0339000D02*
X0101500Y0339000D01*
X0126700Y0339000D02*
X0129000Y0339000D01*
X0166300Y0304000D02*
X0176500Y0304000D01*
X0191500Y0289000D01*
X0186500Y0274000D02*
X0186500Y0261500D01*
X0191500Y0256500D01*
X0196500Y0259000D02*
X0189000Y0266500D01*
X0161500Y0234000D02*
X0159000Y0234000D01*
X0149000Y0224000D01*
X0149000Y0149000D01*
X0149000Y0141500D02*
X0149000Y0049000D01*
X0144000Y0044000D01*
X0141500Y0044000D01*
X0126700Y0044000D01*
X0121500Y0044000D01*
X0106500Y0059000D01*
X0101300Y0059000D01*
X0101300Y0054000D02*
X0106500Y0054000D01*
X0121500Y0039000D01*
X0126700Y0039000D01*
X0136500Y0039000D01*
X0136500Y0049000D02*
X0126700Y0049000D01*
X0121500Y0049000D01*
X0106500Y0064000D01*
X0101300Y0064000D01*
X0101300Y0069000D02*
X0106500Y0069000D01*
X0121500Y0054000D01*
X0126700Y0054000D01*
X0141500Y0054000D01*
X0144000Y0049000D02*
X0136500Y0049000D01*
X0144000Y0049000D02*
X0146500Y0051500D01*
X0146500Y0139000D01*
X0141500Y0144000D01*
X0141500Y0154000D01*
X0144000Y0156500D01*
X0144000Y0276500D01*
X0141500Y0289000D02*
X0126700Y0289000D01*
X0103800Y0289000D01*
X0103800Y0284000D02*
X0104000Y0284000D01*
X0104000Y0276500D01*
X0054000Y0226500D01*
X0054000Y0214000D01*
X0011500Y0171500D01*
X0011500Y0164000D01*
X0026500Y0169000D02*
X0031500Y0164000D01*
X0039000Y0164000D01*
X0051500Y0151500D01*
X0051500Y0101500D01*
X0054000Y0099000D01*
X0061700Y0099000D01*
X0061700Y0094000D02*
X0054000Y0094000D01*
X0049000Y0099000D01*
X0049000Y0116500D01*
X0041500Y0124000D01*
X0031500Y0124000D01*
X0026500Y0129000D01*
X0026500Y0119000D02*
X0031500Y0114000D01*
X0039000Y0114000D01*
X0046500Y0106500D01*
X0046500Y0096500D01*
X0054000Y0089000D01*
X0061700Y0089000D01*
X0061700Y0084000D02*
X0054000Y0084000D01*
X0044000Y0094000D01*
X0044000Y0099000D01*
X0039000Y0104000D01*
X0031500Y0104000D01*
X0026500Y0109000D01*
X0026500Y0099000D02*
X0031500Y0094000D01*
X0039000Y0094000D01*
X0041500Y0091500D01*
X0041500Y0089000D01*
X0051500Y0079000D01*
X0061700Y0079000D01*
X0061700Y0074000D02*
X0049000Y0074000D01*
X0039000Y0084000D01*
X0031500Y0084000D01*
X0026500Y0089000D01*
X0026500Y0079000D02*
X0031500Y0074000D01*
X0039000Y0074000D01*
X0044000Y0069000D01*
X0061700Y0069000D01*
X0061700Y0064000D02*
X0031500Y0064000D01*
X0026500Y0069000D01*
X0026500Y0059000D02*
X0031500Y0054000D01*
X0039000Y0054000D01*
X0044000Y0059000D01*
X0061700Y0059000D01*
X0061700Y0054000D02*
X0054000Y0054000D01*
X0044000Y0044000D01*
X0044000Y0029000D01*
X0039000Y0024000D01*
X0031500Y0024000D01*
X0026500Y0019000D01*
X0061500Y0049000D02*
X0061700Y0049000D01*
X0101300Y0049000D02*
X0106500Y0049000D01*
X0121500Y0034000D01*
X0126500Y0034000D01*
X0126700Y0034000D01*
X0166300Y0034000D01*
X0166300Y0039000D02*
X0176500Y0039000D01*
X0196500Y0019000D01*
X0181500Y0044000D02*
X0166300Y0044000D01*
X0166300Y0049000D02*
X0179000Y0049000D01*
X0191500Y0061500D01*
X0191500Y0064000D01*
X0196500Y0069000D01*
X0189000Y0071500D02*
X0196500Y0079000D01*
X0189000Y0071500D02*
X0189000Y0064000D01*
X0179000Y0054000D01*
X0166300Y0054000D01*
X0166300Y0059000D02*
X0179000Y0059000D01*
X0186500Y0066500D01*
X0186500Y0079000D01*
X0196500Y0089000D01*
X0196500Y0099000D02*
X0184000Y0086500D01*
X0184000Y0069000D01*
X0179000Y0064000D01*
X0166300Y0064000D01*
X0166300Y0069000D02*
X0176500Y0069000D01*
X0181500Y0074000D01*
X0181500Y0094000D01*
X0196500Y0109000D01*
X0196500Y0119000D02*
X0179000Y0101500D01*
X0179000Y0079000D01*
X0174000Y0074000D01*
X0166300Y0074000D01*
X0166300Y0079000D02*
X0174000Y0079000D01*
X0176500Y0081500D01*
X0176500Y0109000D01*
X0196500Y0129000D01*
X0191500Y0129000D02*
X0191500Y0164000D01*
X0196500Y0169000D01*
X0181500Y0164000D02*
X0181500Y0204000D01*
X0171500Y0214000D01*
X0161500Y0214000D01*
X0161500Y0224000D02*
X0166500Y0224000D01*
X0186500Y0204000D01*
X0174000Y0199000D02*
X0169000Y0204000D01*
X0161500Y0204000D01*
X0156500Y0204000D01*
X0154000Y0201500D01*
X0154000Y0124000D01*
X0159000Y0119000D01*
X0161500Y0119000D01*
X0174000Y0111500D02*
X0174000Y0086500D01*
X0171500Y0084000D01*
X0166300Y0084000D01*
X0166300Y0089000D02*
X0164000Y0089000D01*
X0141500Y0084000D02*
X0126700Y0084000D01*
X0121500Y0084000D01*
X0106500Y0099000D01*
X0101300Y0099000D01*
X0101300Y0094000D02*
X0106500Y0094000D01*
X0121500Y0079000D01*
X0126700Y0079000D01*
X0136500Y0079000D01*
X0141500Y0074000D02*
X0126700Y0074000D01*
X0121500Y0074000D01*
X0106500Y0089000D01*
X0101300Y0089000D01*
X0101300Y0084000D02*
X0106500Y0084000D01*
X0121500Y0069000D01*
X0126700Y0069000D01*
X0136500Y0069000D01*
X0141500Y0064000D02*
X0126700Y0064000D01*
X0121500Y0064000D01*
X0106500Y0079000D01*
X0101300Y0079000D01*
X0101300Y0074000D02*
X0106500Y0074000D01*
X0121500Y0059000D01*
X0126700Y0059000D01*
X0136500Y0059000D01*
X0126700Y0089000D02*
X0121500Y0089000D01*
X0116500Y0094000D01*
X0116500Y0124000D01*
X0101500Y0139000D01*
X0051500Y0189000D01*
X0051500Y0194000D01*
X0061500Y0204000D01*
X0056500Y0209000D02*
X0104000Y0209000D01*
X0101500Y0199000D02*
X0066500Y0199000D01*
X0061500Y0194000D01*
X0056500Y0209000D02*
X0026500Y0179000D01*
X0061500Y0214000D02*
X0061500Y0224000D01*
X0074000Y0224000D01*
X0119000Y0269000D01*
X0121500Y0219000D02*
X0101500Y0199000D01*
X0039000Y0254000D02*
X0034000Y0254000D01*
X0031500Y0251500D01*
X0031500Y0224000D01*
X0026500Y0219000D01*
X0039000Y0254000D02*
X0046500Y0261500D01*
X0046500Y0276500D01*
X0059000Y0289000D01*
X0064200Y0289000D01*
X0064200Y0294000D02*
X0059000Y0294000D01*
X0044000Y0279000D01*
X0044000Y0269000D01*
X0039000Y0264000D01*
X0031500Y0264000D01*
X0026500Y0259000D01*
X0026500Y0269000D02*
X0031500Y0274000D01*
X0039000Y0274000D01*
X0041500Y0276500D01*
X0041500Y0281500D01*
X0059000Y0299000D01*
X0064200Y0299000D01*
X0064200Y0304000D02*
X0059000Y0304000D01*
X0039000Y0284000D01*
X0031500Y0284000D01*
X0026500Y0279000D01*
X0026500Y0289000D02*
X0031500Y0294000D01*
X0044000Y0294000D01*
X0059000Y0309000D01*
X0064200Y0309000D01*
X0064200Y0314000D02*
X0059000Y0314000D01*
X0049000Y0304000D01*
X0031500Y0304000D01*
X0026500Y0299000D01*
X0026500Y0309000D02*
X0031500Y0314000D01*
X0039000Y0314000D01*
X0044000Y0319000D01*
X0064200Y0319000D01*
X0064200Y0324000D02*
X0031500Y0324000D01*
X0026500Y0319000D01*
X0026500Y0329000D02*
X0031500Y0334000D01*
X0039000Y0334000D01*
X0044000Y0329000D01*
X0064200Y0329000D01*
X0064200Y0334000D02*
X0049000Y0334000D01*
X0041500Y0341500D01*
X0041500Y0361500D01*
X0039000Y0364000D01*
X0031500Y0364000D01*
X0026500Y0369000D01*
X0064200Y0339000D02*
X0066500Y0339000D01*
X0196500Y0339000D02*
X0201500Y0344000D01*
X0214000Y0344000D01*
X0229000Y0359000D01*
X0216500Y0354000D02*
X0201500Y0354000D01*
X0196500Y0349000D01*
X0264000Y0314000D02*
X0264000Y0239000D01*
X0271500Y0231500D01*
X0271500Y0206500D01*
X0261500Y0196500D01*
X0261500Y0076500D01*
X0254000Y0069000D01*
X0241700Y0069000D01*
X0226500Y0069000D01*
X0231500Y0064000D02*
X0241700Y0064000D01*
X0254000Y0064000D01*
X0264000Y0074000D01*
X0264000Y0166500D01*
X0271500Y0174000D01*
X0271500Y0196500D01*
X0281500Y0206500D01*
X0281500Y0226500D01*
X0269000Y0239000D01*
X0269000Y0309000D01*
X0278800Y0329000D02*
X0286500Y0329000D01*
X0291500Y0334000D01*
X0279000Y0271500D02*
X0279000Y0246500D01*
X0274000Y0241500D01*
X0276500Y0216500D02*
X0276500Y0206500D01*
X0266500Y0196500D01*
X0266500Y0186500D01*
X0259000Y0166500D02*
X0259000Y0079000D01*
X0254000Y0074000D01*
X0241700Y0074000D01*
X0231500Y0074000D01*
X0236500Y0084000D02*
X0231500Y0089000D01*
X0231500Y0114000D01*
X0241500Y0114000D02*
X0241500Y0169000D01*
X0219000Y0154000D02*
X0209000Y0144000D01*
X0201500Y0144000D01*
X0196500Y0139000D01*
X0191500Y0129000D02*
X0174000Y0111500D01*
X0219000Y0141500D02*
X0219000Y0064000D01*
X0209000Y0054000D01*
X0201500Y0054000D01*
X0196500Y0049000D01*
X0196500Y0059000D02*
X0181500Y0044000D01*
X0226500Y0049000D02*
X0241700Y0049000D01*
X0241700Y0044000D02*
X0231500Y0044000D01*
X0236500Y0084000D02*
X0241700Y0084000D01*
X0241700Y0089000D02*
X0241500Y0089000D01*
X0241500Y0114000D01*
X0219000Y0141500D02*
X0224000Y0146500D01*
X0281300Y0084000D02*
X0289000Y0084000D01*
X0291500Y0086500D01*
X0291500Y0096500D01*
X0301500Y0106500D01*
X0301500Y0159000D01*
X0311500Y0169000D01*
X0314000Y0169000D01*
X0311500Y0164000D02*
X0306500Y0159000D01*
X0306500Y0146500D01*
X0314000Y0139000D01*
X0314000Y0129000D02*
X0304000Y0119000D01*
X0304000Y0104000D01*
X0294000Y0094000D01*
X0294000Y0081500D01*
X0291500Y0079000D01*
X0281300Y0079000D01*
X0281300Y0074000D02*
X0294000Y0074000D01*
X0296500Y0076500D01*
X0296500Y0091500D01*
X0306500Y0101500D01*
X0306500Y0111500D01*
X0314000Y0119000D01*
X0314000Y0109000D02*
X0309000Y0104000D01*
X0309000Y0099000D01*
X0299000Y0089000D01*
X0299000Y0071500D01*
X0296500Y0069000D01*
X0281300Y0069000D01*
X0281300Y0064000D02*
X0296500Y0064000D01*
X0301500Y0069000D01*
X0301500Y0086500D01*
X0314000Y0099000D01*
X0314000Y0089000D02*
X0304000Y0079000D01*
X0304000Y0066500D01*
X0296500Y0059000D01*
X0281300Y0059000D01*
X0281300Y0054000D02*
X0296500Y0054000D01*
X0306500Y0064000D01*
X0306500Y0071500D01*
X0314000Y0079000D01*
X0314000Y0069000D02*
X0309000Y0064000D01*
X0309000Y0061500D01*
X0296500Y0049000D01*
X0281300Y0049000D01*
X0281300Y0044000D02*
X0299000Y0044000D01*
X0331500Y0109000D02*
X0331500Y0149000D01*
X0326500Y0154000D01*
X0319000Y0154000D01*
X0314000Y0159000D01*
X0311500Y0164000D02*
X0326500Y0164000D01*
X0329000Y0166500D01*
X0329000Y0169000D01*
X0334000Y0174000D01*
X0349000Y0159000D02*
X0341500Y0151500D01*
X0341500Y0126500D01*
X0349000Y0119000D01*
X0351500Y0119000D01*
X0366500Y0109000D02*
X0369000Y0111500D01*
X0369000Y0171500D01*
X0359000Y0179000D02*
X0359000Y0159000D01*
X0349000Y0159000D02*
X0349000Y0194000D01*
X0346500Y0196500D01*
X0101500Y0104000D02*
X0101300Y0104000D01*
X0061700Y0104000D02*
X0061500Y0104000D01*
X0061500Y0129000D01*
D20*
X0136500Y0079000D03*
X0141500Y0074000D03*
X0136500Y0069000D03*
X0141500Y0064000D03*
X0136500Y0059000D03*
X0141500Y0054000D03*
X0136500Y0049000D03*
X0141500Y0044000D03*
X0136500Y0039000D03*
X0126500Y0026500D03*
X0141500Y0084000D03*
X0149000Y0149000D03*
X0181500Y0164000D03*
X0186500Y0199000D03*
X0174000Y0199000D03*
X0186500Y0244000D03*
X0181500Y0264000D03*
X0149000Y0294000D03*
X0141500Y0289000D03*
X0141500Y0299000D03*
X0149000Y0304000D03*
X0144000Y0309000D03*
X0149000Y0314000D03*
X0144000Y0319000D03*
X0149000Y0324000D03*
X0144000Y0329000D03*
X0149000Y0334000D03*
X0116500Y0284000D03*
X0119000Y0269000D03*
X0144000Y0276500D03*
X0121500Y0219000D03*
X0104000Y0209000D03*
X0074000Y0284000D03*
X0216500Y0354000D03*
X0229000Y0359000D03*
X0226500Y0329000D03*
X0221500Y0324000D03*
X0226500Y0319000D03*
X0221500Y0314000D03*
X0226500Y0309000D03*
X0221500Y0304000D03*
X0226500Y0299000D03*
X0221500Y0294000D03*
X0226500Y0289000D03*
X0221500Y0284000D03*
X0226500Y0279000D03*
X0236500Y0256500D03*
X0236500Y0239000D03*
X0254000Y0236500D03*
X0274000Y0241500D03*
X0291500Y0261500D03*
X0286500Y0271500D03*
X0296500Y0271500D03*
X0331500Y0284000D03*
X0336500Y0264000D03*
X0371500Y0264000D03*
X0351500Y0206500D03*
X0346500Y0196500D03*
X0344000Y0179000D03*
X0334000Y0174000D03*
X0336500Y0164000D03*
X0359000Y0159000D03*
X0364000Y0169000D03*
X0359000Y0179000D03*
X0374000Y0191500D03*
X0379000Y0186500D03*
X0384000Y0181500D03*
X0364000Y0139000D03*
X0366500Y0109000D03*
X0331500Y0109000D03*
X0279000Y0146500D03*
X0241500Y0169000D03*
X0219000Y0154000D03*
X0224000Y0146500D03*
X0231500Y0114000D03*
X0226500Y0104000D03*
X0231500Y0074000D03*
X0226500Y0069000D03*
X0231500Y0064000D03*
X0226500Y0059000D03*
X0231500Y0054000D03*
X0226500Y0049000D03*
X0231500Y0044000D03*
X0221500Y0039000D03*
X0241500Y0026500D03*
X0061500Y0041500D03*
X0309000Y0201500D03*
X0316500Y0209000D03*
X0269000Y0309000D03*
X0264000Y0314000D03*
X0296500Y0329000D03*
X0304000Y0334000D03*
D21*
X0278800Y0334000D02*
X0276500Y0334000D01*
X0276500Y0344000D01*
X0274000Y0346500D01*
X0244000Y0346500D02*
X0241500Y0344000D01*
X0241500Y0334000D01*
X0239200Y0334000D01*
X0239200Y0279000D02*
X0226500Y0279000D01*
X0164000Y0339000D02*
X0164000Y0349000D01*
X0161500Y0351500D01*
X0131500Y0351500D02*
X0129000Y0349000D01*
X0129000Y0339000D01*
X0101500Y0339000D02*
X0101500Y0349000D01*
X0099000Y0351500D01*
X0069000Y0351500D02*
X0066500Y0349000D01*
X0066500Y0339000D01*
X0064200Y0284000D02*
X0074000Y0284000D01*
X0116500Y0284000D02*
X0126700Y0284000D01*
X0101500Y0116500D02*
X0101500Y0104000D01*
X0061500Y0049000D02*
X0061500Y0041500D01*
X0126500Y0034000D02*
X0126500Y0026500D01*
X0164000Y0089000D02*
X0164000Y0099000D01*
X0161500Y0101500D01*
X0241500Y0034000D02*
X0241500Y0026500D01*
X0279000Y0089000D02*
X0281300Y0089000D01*
X0279000Y0089000D02*
X0279000Y0099000D01*
X0276500Y0101500D01*
M02*
